<?xml version="1.0" encoding="utf-8"?>
<!-- Generator: Adobe Illustrator 15.0.0, SVG Export Plug-In . SVG Version: 6.00 Build 0)  -->
<!DOCTYPE svg PUBLIC "-//W3C//DTD SVG 1.1//EN" "http://www.w3.org/Graphics/SVG/1.1/DTD/svg11.dtd">
<svg version="1.1" id="图层_1" xmlns="http://www.w3.org/2000/svg" xmlns:xlink="http://www.w3.org/1999/xlink" x="0px" y="0px"
	 width="200px" height="200px" viewBox="0 0 200 200" style="enable-background:new 0 0 200 200;" xml:space="preserve">
<path d="M200,55.693c0,3.415-1.313,6.595-3.699,8.973l-87.205,87.051c-0.312,0.318-0.576,0.567-0.86,0.77l-0.647,0.515
	c-2.551,2.539-5.552,3.786-8.728,3.786c-3.233,0-6.257-1.274-8.514-3.587L3.627,65.552C1.289,63.181,0,60.015,0,56.641
	c0-3.301,1.251-6.418,3.519-8.776c2.276-2.345,5.449-3.694,8.701-3.694c3.213,0,6.257,1.278,8.571,3.605l78.22,79.069L179.3,46.767
	c2.304-2.289,5.313-3.554,8.487-3.554c3.325,0,6.445,1.352,8.786,3.797C198.782,49.337,200,52.427,200,55.693L200,55.693z"/>
</svg>
