<?xml version="1.0" encoding="utf-8"?>
<!-- Generator: Adobe Illustrator 21.0.0, SVG Export Plug-In . SVG Version: 6.00 Build 0)  -->
<svg version="1.1" id="图层_1" xmlns="http://www.w3.org/2000/svg" xmlns:xlink="http://www.w3.org/1999/xlink" x="0px" y="0px"
	 viewBox="0 0 200 200" style="enable-background:new 0 0 200 200;" xml:space="preserve">
<path d="M195.3,178.7c-2.2,0-4.2-1.6-4.6-3.8c-0.1-0.3-3.1-14.3-16.3-28.1c-16.7-17.6-42.6-27.2-75-28.1v38.2c0,1.8-1,3.4-2.6,4.2
	c-1.6,0.8-3.5,0.7-4.9-0.4L1.9,95.4C0.7,94.5,0,93.1,0,91.6c0-1.5,0.7-2.9,1.9-3.8L92,22.2c1.4-1,3.3-1.2,4.9-0.4
	c1.6,0.8,2.6,2.4,2.6,4.2v40.5c5.8,0.2,15.9,1.1,27.7,4.2c18.7,5,34.2,13.6,46.1,25.7c18.3,18.6,27.3,44.7,26.8,77.6
	c0,2.4-1.9,4.4-4.3,4.6C195.6,178.7,195.4,178.7,195.3,178.7z M94.7,109.2c20.8,0,39.3,3.3,54.9,9.7c12.6,5.2,23.4,12.6,32,21.8
	c2.8,3,5.2,6,7.3,9c-3.1-19-10.6-34.7-22.4-46.7c-25.4-25.8-63.1-27.2-70.4-27.2c-0.8,0-1.2,0-1.2,0c-1.3,0-2.5-0.4-3.4-1.3
	c-0.9-0.9-1.4-2.1-1.4-3.4l0-36L12.7,91.6l77.4,56.1v-33.7C90.1,111.3,92.2,109.2,94.7,109.2z"/>
</svg>
