<?xml version="1.0" encoding="utf-8"?>
<!-- Generator: Adobe Illustrator 21.0.0, SVG Export Plug-In . SVG Version: 6.00 Build 0)  -->
<svg version="1.1" id="图层_1" xmlns="http://www.w3.org/2000/svg" xmlns:xlink="http://www.w3.org/1999/xlink" x="0px" y="0px"
	 viewBox="0 0 200 200" style="enable-background:new 0 0 200 200;" xml:space="preserve">
<path d="M195.3,89.7l-20.6-20.6V40.8c0-9-6.4-15.4-15.4-15.4h-21.9c-3.9,0-7.7-1.3-10.3-5.1L111.7,4.8c-6.4-6.4-15.4-6.4-21.9,0
	L74.4,20.3c-3.9,2.6-7.7,5.1-11.6,5.1H40.9c-9,0-15.4,6.4-15.4,15.4v21.9c0,3.9-1.3,7.7-5.1,10.3L4.9,89.7c-6.4,6.4-6.4,15.4,0,21.9
	L20.3,127c2.6,2.6,5.1,6.4,5.1,10.3v21.9c0,9,6.4,15.4,15.4,15.4h21.9c3.9,0,7.7,1.3,10.3,5.1l15.4,15.4c6.4,6.4,15.4,6.4,21.9,0
	l15.4-15.4c2.6-2.6,6.4-5.1,10.3-5.1H158c9,0,15.4-6.4,15.4-15.4v-21.9c0-3.9,1.3-7.7,5.1-10.3l15.4-15.4
	C201.7,105.1,201.7,94.9,195.3,89.7L195.3,89.7z M100.1,141.2L61.5,58.8h19.3l19.3,42.4l19.3-42.4h19.3L100.1,141.2L100.1,141.2z"/>
</svg>
