<?xml version="1.0" encoding="utf-8"?>
<!-- Generator: Adobe Illustrator 21.0.0, SVG Export Plug-In . SVG Version: 6.00 Build 0)  -->
<svg version="1.1" id="图层_1" xmlns="http://www.w3.org/2000/svg" xmlns:xlink="http://www.w3.org/1999/xlink" x="0px" y="0px"
	 viewBox="0 0 200 200" style="enable-background:new 0 0 200 200;" xml:space="preserve">
<style type="text/css">
	.st0{display:none;}
</style>
<path class="st0" d="M190.9,181.8c0,5-4.1,9.1-9.1,9.1H18.2c-5,0-9.1-4.1-9.1-9.1V18.2c0-5,4.1-9.1,9.1-9.1h163.6
	c5,0,9.1,4.1,9.1,9.1V181.8L190.9,181.8z"/>
<path d="M181.8,0H18.2C8.2,0,0,8.1,0,18.2v163.6C0,191.9,8.1,200,18.2,200h163.6c10,0,18.2-8.1,18.2-18.2V18.2
	C200,8.2,191.8,0,181.8,0z M60.5,179.9L46,169.3l-14.5,10.7l5.8-17.5l-12.6-9.7h15.5l5.8-15.5l5.9,15.5h15.5l-12.6,9.7L60.5,179.9z
	 M54.7,102.9l5.8,17.5L46,109.8l-14.5,10.7l5.8-17.5l-12.6-9.7h15.5L46,77.7l5.9,15.5h15.5L54.7,102.9z M54.7,43.4l5.8,17.5L46,50.3
	L31.4,60.9l5.8-17.5l-12.6-9.7h15.5L46,18.2l5.9,15.5h15.5L54.7,43.4z M170.8,166.8H89c-2.5,0-4.5-3.7-4.5-8.2c0-4.5,2-8.2,4.5-8.2
	h81.8c2.5,0,4.5,3.7,4.5,8.2C175.4,163.1,173.3,166.8,170.8,166.8z M170.8,107.3H89c-2.5,0-4.5-3.7-4.5-8.2c0-4.5,2-8.2,4.5-8.2
	h81.8c2.5,0,4.5,3.7,4.5,8.2C175.4,103.6,173.3,107.3,170.8,107.3z M170.8,47.8H89c-2.5,0-4.5-3.7-4.5-8.2c0-4.5,2-8.2,4.5-8.2h81.8
	c2.5,0,4.5,3.7,4.5,8.2C175.4,44.1,173.3,47.8,170.8,47.8z"/>
</svg>
