<?xml version="1.0" standalone="no"?><!DOCTYPE svg PUBLIC "-//W3C//DTD SVG 1.1//EN" "http://www.w3.org/Graphics/SVG/1.1/DTD/svg11.dtd"><svg t="1516270102901" class="icon" style="" viewBox="0 0 1024 1024" version="1.1" xmlns="http://www.w3.org/2000/svg" p-id="7220" xmlns:xlink="http://www.w3.org/1999/xlink" width="200" height="200"><defs><style type="text/css"></style></defs><path d="M512 500.803291c113.851246 0 206.154606-112.10752 206.154606-250.400183C718.154606 112.10752 687.850057 0 512 0s-206.160457 112.10752-206.160457 250.403109C305.839543 388.695771 398.142903 500.803291 512 500.803291z" p-id="7221"></path><path d="M122.61376 883.135634C122.578651 874.703726 122.543543 880.759954 122.61376 883.135634L122.61376 883.135634z" p-id="7222"></path><path d="M901.368686 889.721417C901.479863 887.413029 901.40672 873.706057 901.368686 889.721417L901.368686 889.721417z" p-id="7223"></path><path d="M900.929829 873.024366c-3.818057-240.909166-35.281189-309.5552-276.046994-353.007909 0 0-33.891474 43.186469-112.88576 43.186469s-112.891611-43.186469-112.891611-43.186469c-238.138514 42.978743-271.515063 110.606629-275.903634 345.181623-0.359863 19.154651-0.526629 20.161097-0.590994 17.937554 0.014629 4.166217 0.032183 11.872549 0.032183 25.310354 0 0 57.320594 115.554011 389.354057 115.554011 332.027611 0 389.354057-115.554011 389.354057-115.554011 0-8.633783 0.005851-14.637349 0.014629-18.721646C901.301394 891.099429 901.172663 888.434103 900.929829 873.024366z" p-id="7224"></path></svg>