<?xml version="1.0" encoding="utf-8"?>
<!-- Generator: Adobe Illustrator 21.0.0, SVG Export Plug-In . SVG Version: 6.00 Build 0)  -->
<svg version="1.1" id="图层_1" xmlns="http://www.w3.org/2000/svg" xmlns:xlink="http://www.w3.org/1999/xlink" x="0px" y="0px"
	 viewBox="0 0 200 200" style="enable-background:new 0 0 200 200;" xml:space="preserve">
<path d="M100,0C44.8,0,0,14,0,31.3v25c0,17.3,44.8,31.3,100,31.3s100-14,100-31.3v-25C200,14,155.2,0,100,0z"/>
<path d="M100,106.3C44.8,106.3,0,92.3,0,75v37.5c0,17.3,44.8,31.3,100,31.3s100-14,100-31.3V75C200,92.3,155.2,106.3,100,106.3z"/>
<path d="M100,162.5c-55.2,0-100-14-100-31.3v37.5C0,186,44.8,200,100,200s100-14,100-31.3v-37.5C200,148.5,155.2,162.5,100,162.5z"
	/>
</svg>
