<?xml version="1.0" encoding="utf-8"?>
<!-- Generator: Adobe Illustrator 21.0.0, SVG Export Plug-In . SVG Version: 6.00 Build 0)  -->
<svg version="1.1" id="图层_1" xmlns="http://www.w3.org/2000/svg" xmlns:xlink="http://www.w3.org/1999/xlink" x="0px" y="0px"
	 viewBox="0 0 200 200" style="enable-background:new 0 0 200 200;" xml:space="preserve">
<path d="M138.5,28.6V14.3c0-7.9-6.9-14.3-15.4-14.3H76.9c-8.5,0-15.4,6.4-15.4,14.3v14.3H0v14.3h23.1v142.9
	c0,7.9,6.9,14.3,15.4,14.3h123.1c8.5,0,15.4-6.4,15.4-14.3V42.9H200V28.6L138.5,28.6L138.5,28.6z M76.9,14.3h46.2v14.3H76.9
	L76.9,14.3L76.9,14.3z M161.5,185.7H38.5V42.9h123.1L161.5,185.7L161.5,185.7z M61.5,64.3h15.4v100H61.5V64.3L61.5,64.3z M92.3,64.3
	h15.4v100H92.3L92.3,64.3L92.3,64.3z M123.1,64.3h15.4v100h-15.4V64.3L123.1,64.3z"/>
</svg>
