<?xml version="1.0" encoding="utf-8"?>
<!-- Generator: Adobe Illustrator 21.0.0, SVG Export Plug-In . SVG Version: 6.00 Build 0)  -->
<svg version="1.1" id="图层_1" xmlns="http://www.w3.org/2000/svg" xmlns:xlink="http://www.w3.org/1999/xlink" x="0px" y="0px"
	 viewBox="0 0 200 200" style="enable-background:new 0 0 200 200;" xml:space="preserve">
<path d="M122.1,140.6c0-3.6-2.9-6.5-6.5-6.5H13V19.4h174v49.9c0,3.6,2.9,6.5,6.5,6.5c3.6,0,6.5-2.9,6.5-6.5V19.4c0-7.1-5.8-13-13-13
	H13c-7.1,0-13,5.8-13,13v114.7c0,7.1,5.8,13,13,13h102.7C119.2,147.1,122.1,144.2,122.1,140.6z M122.7,154.7H77.3v25.9H33.5v13
	h132.9v-13h-43.8L122.7,154.7z"/>
<path d="M192.4,97.8c-5.8,0-9.5-6.3-6.6-11.3c2.1-3.6,0.8-8.2-2.8-10.3c0,0,0,0,0,0L173,70.3c-3.6-2.1-8.2-0.8-10.3,2.8c0,0,0,0,0,0
	c-2.9,5-10.2,5-13.1,0c-2.1-3.6-6.7-4.9-10.3-2.8L129,76.2c-3.6,2.1-4.9,6.7-2.8,10.3c0,0,0,0,0,0c2.9,5-0.7,11.3-6.6,11.3
	c-4.2,0-7.6,3.4-7.6,7.6v11.7c0,4.2,3.4,7.6,7.6,7.6c5.8,0,9.5,6.3,6.6,11.3c-2.1,3.6-0.8,8.2,2.8,10.3c0,0,0,0,0,0l10.1,5.9
	c3.6,2.1,8.2,0.8,10.3-2.8c0,0,0,0,0,0c2.9-5,10.2-5,13.1,0c2.1,3.6,6.7,4.9,10.3,2.8c0,0,0,0,0,0l10.1-5.9
	c3.6-2.1,4.9-6.7,2.8-10.3c0,0,0,0,0,0c-2.9-5,0.7-11.3,6.6-11.3c4.2,0,7.6-3.4,7.6-7.6v-11.7C200,101.2,196.6,97.8,192.4,97.8
	C192.4,97.8,192.4,97.8,192.4,97.8L192.4,97.8z M164.2,125.3c-7.8,4.5-17.7,1.8-22.1-5.9s-1.8-17.7,5.9-22.1
	c7.8-4.5,17.7-1.8,22.1,5.9S171.9,120.8,164.2,125.3z M22.3,41.4h13v69.9h-13V41.4z M45.3,63.3h13v48h-13V63.3z M68.3,48.6h13v62.6
	h-13V48.6z M91.3,80.8h13v30.4h-13V80.8z"/>
</svg>
