<?xml version="1.0" encoding="utf-8"?>
<!-- Generator: Adobe Illustrator 21.0.0, SVG Export Plug-In . SVG Version: 6.00 Build 0)  -->
<svg version="1.1" id="图层_1" xmlns="http://www.w3.org/2000/svg" xmlns:xlink="http://www.w3.org/1999/xlink" x="0px" y="0px"
	 viewBox="0 0 200 200" style="enable-background:new 0 0 200 200;" xml:space="preserve">
<path d="M138.1,9.9c2.2-1.3,5-0.4,6.2,1.8l42.5,73.6c1.3,2.1,0.5,5-1.7,6.2l-0.2,0.1c-24.5,14.1-49,28.3-73.4,42.4
	c-2.2,1.2-5,0.5-6.3-1.7L62.8,58.8c-1.2-2.2-0.5-5,1.6-6.2L138.1,9.9L138.1,9.9z M138.8,20.2L138.8,20.2l-17.4,10.1l11.4,19.7
	c1.2,2.1,0.5,5-1.7,6.2l-23,13.3c-2.2,1.3-5,0.5-6.3-1.7L90.3,48.1L73,58.1l37.9,65.7l17.4-10l-11.4-19.7c-1.3-2.2-0.5-5,1.7-6.2
	l23.1-13.3c2.1-1.3,5-0.6,6.2,1.6l11.4,19.7l17.2-9.9L138.8,20.2L138.8,20.2z M105,138.3L105,138.3c3.6,0,7.1,0.7,10.4,2.1
	l73.1-42.2c3.6-2.1,8.3-0.9,10.5,2.8c2,3.7,0.8,8.4-2.9,10.5l-68.6,39.6c2.3,3.9,3.7,8.5,3.7,13.4c0,7.1-2.9,13.7-7.8,18.4
	c-4.7,4.9-11.3,7.8-18.5,7.8c-7.4,0-13.9-2.9-18.6-7.8l-0.5-0.4c-4.4-4.8-7.1-11.1-7.1-18c0-7.3,2.9-13.8,7.6-18.6l0.7-0.7
	L26.2,39.7H7.6C3.4,39.7,0,36.2,0,32s3.4-7.6,7.6-7.6h23c2.9,0,5.7,1.8,6.9,4.4l63.5,109.7C102.3,138.4,103.6,138.3,105,138.3
	L105,138.3z M112.7,156.8L112.7,156.8c-2-1.9-4.7-3.2-7.6-3.2c-3.1,0-5.8,1.3-7.6,3.2c-2,2-3.3,4.6-3.3,7.7c0,2.8,1.1,5.4,3,7.3
	l0.3,0.3c1.9,2,4.6,3.2,7.6,3.2c3,0,5.6-1.2,7.6-3.2v0.1c1.9-1.9,3.1-4.6,3.1-7.6C115.7,161.5,114.5,158.8,112.7,156.8L112.7,156.8z
	 M113.4,34.8L113.4,34.8l-15.1,8.7l9.2,15.6l15-8.7L113.4,34.8L113.4,34.8z M142.3,84.8L142.3,84.8l-15.1,8.7l9.1,15.7l15-8.8
	L142.3,84.8L142.3,84.8z"/>
</svg>
