<?xml version="1.0" encoding="utf-8"?>
<!-- Generator: Adobe Illustrator 21.0.0, SVG Export Plug-In . SVG Version: 6.00 Build 0)  -->
<svg version="1.1" id="图层_1" xmlns="http://www.w3.org/2000/svg" xmlns:xlink="http://www.w3.org/1999/xlink" x="0px" y="0px"
	 viewBox="0 0 200 200" style="enable-background:new 0 0 200 200;" xml:space="preserve">
<path d="M100,200c55.1,0,100-44.9,100-100S155.1,0,100,0C44.9,0,0,44.9,0,100S44.9,200,100,200z M59.9,101.2
	c4.1-4.8,11.3-5.4,16.1-1.3c0,0,0,0,0,0l12.6,10.7V64.7c0-6.3,5.1-11.4,11.4-11.4c6.3,0,11.4,5.1,11.4,11.4v45.9L124,99.9
	c4.9-4,12.1-3.3,16.1,1.6c3.9,4.7,3.3,11.7-1.3,15.8L107.4,144c-4.3,3.6-10.5,3.6-14.8,0l-31.4-26.7C56.4,113.2,55.8,106,59.9,101.2
	L59.9,101.2z"/>
</svg>
