<?xml version="1.0" encoding="utf-8"?>
<!-- Generator: Adobe Illustrator 21.0.0, SVG Export Plug-In . SVG Version: 6.00 Build 0)  -->
<svg version="1.1" id="图层_1" xmlns="http://www.w3.org/2000/svg" xmlns:xlink="http://www.w3.org/1999/xlink" x="0px" y="0px"
	 viewBox="0 0 200 200" style="enable-background:new 0 0 200 200;" xml:space="preserve">
<path d="M197.7,63.7L136.4,2.4l-0.1-0.1c-3.1-3-8-3-11,0L2.2,125.3L2,125.6l0,0l-0.1,0.1l0,0l-0.1,0.1v0.1L1.6,126v0.1l-0.1,0.1v0.1
	l-0.1,0.1l-0.1,0.2v0.1l-0.1,0.1H1.1l-0.1,0.1L1,126.8v0.1l-0.1,0.1v0.1H0.8v0.1l-0.1,0.1l-0.1,0.1v0.1l-0.1,0.1v0.1v0.1l-0.1,0.1
	v0.1v0.1l-0.1,0.1v0.1v0.1l-0.1,0.1l0,0v0.1v0.1l-0.1,0.1v0.1v0.1v0.1v0.1l-0.1,0.1l0,0v0.1v0.1v0.1v0.1v0.1v0.1v0.1v0.1L0,130.2
	v0.1v0.2l0,0v61.9c0,4.4,3.4,7.8,7.7,7.8h61.7h0.2h0.1l0.2-0.1h0.2l0.1-0.1h0.2l0.3-0.1l0.1-0.1h0.2l0.2-0.1l0.1-0.1l0.3-0.1
	l0.4-0.1l0.1-0.1h0.2l0.1-0.1l0.2-0.1l0.2-0.1l0.2-0.1l0.2-0.1l0.2-0.1l0.1-0.1l0.2-0.1l0.1-0.1l0.2-0.1l0.1-0.2l0.2-0.1l0.2-0.1
	l0.2-0.1l123-123.2C200.8,71.6,200.8,66.8,197.7,63.7L197.7,63.7z M130.7,18.6L130.7,18.6l9.2,9.2L27.8,140.1l-9.3-9.3L130.7,18.6
	L130.7,18.6z M15.4,184.6L15.4,184.6v-35.3l35.2,35.3H15.4L15.4,184.6z M34.3,146.5L34.3,146.5L146.5,34.3l19.3,19.3L53.4,165.7
	L34.3,146.5L34.3,146.5z M69.2,181.4L69.2,181.4l-9.2-9.2L172.2,60l9.3,9.3L69.2,181.4L69.2,181.4z"/>
</svg>
