<?xml version="1.0" standalone="no"?><!DOCTYPE svg PUBLIC "-//W3C//DTD SVG 1.1//EN" "http://www.w3.org/Graphics/SVG/1.1/DTD/svg11.dtd"><svg t="1524213887808" class="icon" style="" viewBox="0 0 1024 1024" version="1.1" xmlns="http://www.w3.org/2000/svg" p-id="905" xmlns:xlink="http://www.w3.org/1999/xlink" width="32" height="32"><defs><style type="text/css"></style></defs><path d="M957.025121 512.176009c0.107447-18.962887-7.498788-32.92897-7.93267-33.471322-60.314691-115.142413-172.684968-189.040471-177.357384-192.029548-80.529081-52.978609-168.012551-79.930447-259.626086-80.093153l0-0.597611c-91.830475 0.162706-179.206498 27.060309-259.842003 80.148411-4.564969 2.988054-117.151164 76.887135-177.248913 191.975313-0.434905 0.597611-8.150634 14.508435-8.042163 33.471322l-0.10847 0c-0.216941 19.126616 7.607258 33.200146 8.042163 33.744545 60.20622 115.14139 172.684968 189.039447 177.248913 192.028525 80.637552 53.061496 168.012551 79.903841 259.733533 80.120782l0 0.543376c91.831498-0.10847 179.313945-27.060309 259.951497-80.120782 4.672416-2.989077 117.042693-76.888158 177.357384-191.975313 0.433882-0.597611 8.150634-14.616906 7.93267-33.744545L957.025121 512.176009zM512.000512 678.939103c-92.15691 0-166.926824-74.714655-166.926824-166.9258 0-92.210122 74.768891-166.924777 166.926824-166.924777 92.263333 0 166.924777 74.714655 166.924777 166.924777C678.925289 604.224448 604.263845 678.939103 512.000512 678.939103z" p-id="906" fill="#cccccc"></path></svg>