<?xml version="1.0" encoding="utf-8"?>
<!-- Generator: Adobe Illustrator 14.0.0, SVG Export Plug-In . SVG Version: 6.00 Build 43363)  -->
<!DOCTYPE svg PUBLIC "-//W3C//DTD SVG 1.1//EN" "http://www.w3.org/Graphics/SVG/1.1/DTD/svg11.dtd">
<svg version="1.1" id="图层_1" xmlns="http://www.w3.org/2000/svg" xmlns:xlink="http://www.w3.org/1999/xlink" x="0px" y="0px"
	 width="181px" height="128px" viewBox="0 0 181 128" style="enable-background:new 0 0 181 128;" xml:space="preserve">
<path d="M71.068,19.858c0,10.956-8.876,19.833-19.835,19.833c-10.95,0-19.831-8.877-19.831-19.833
	c0-10.953,8.88-19.828,19.831-19.828C62.191,0.03,71.068,8.905,71.068,19.858z M97.84,9.948c0,5.475-4.438,9.917-9.918,9.917
	c-5.478,0-9.916-4.438-9.916-9.917s4.438-9.917,9.916-9.917C93.402,0.03,97.84,4.469,97.84,9.948z M126.592,12.423
	c0,5.477-4.438,9.916-9.918,9.916c-5.479,0-9.917-4.438-9.917-9.916c0-5.479,4.438-9.919,9.917-9.919
	C122.153,2.503,126.592,6.943,126.592,12.423z M149.897,25.313c0,5.479-4.438,9.919-9.918,9.919s-9.917-4.44-9.917-9.919
	s4.438-9.916,9.917-9.916S149.897,19.834,149.897,25.313z M62.261,50.845c0,0,6.319-17.476,30.488-20.45
	c0,0,37.313-2.602,43.739,34.187c3.137,17.977,1.828,56.91-27.004,62.836c-6.961,1.43-27.146-0.349-24.541-18.566
	c0.917-6.443,6.958-16.929,0-26.029C80.106,76.502,55.938,74.645,62.261,50.845"/>
</svg>
