<?xml version="1.0" encoding="utf-8"?>
<!-- Generator: Adobe Illustrator 14.0.0, SVG Export Plug-In . SVG Version: 6.00 Build 43363)  -->
<!DOCTYPE svg PUBLIC "-//W3C//DTD SVG 1.1//EN" "http://www.w3.org/Graphics/SVG/1.1/DTD/svg11.dtd">
<svg version="1.1" id="图层_1" xmlns="http://www.w3.org/2000/svg" xmlns:xlink="http://www.w3.org/1999/xlink" x="0px" y="0px"
	 width="128px" height="128px" viewBox="0 0 128 128" style="enable-background:new 0 0 128 128;" xml:space="preserve">
<path d="M57.523,1.59c-6.952,0.707-14.669,2.945-21.148,6.155c-12.783,6.333-22.297,15.817-28.6,28.601
	c-15.229,30.691-2.769,68.012,27.864,83.563c30.898,15.699,68.57,3.357,84.269-27.569c12.313-24.212,7.629-53.491-11.575-72.665
	C95.049,6.361,76.314-0.296,57.523,1.59z M75.02,25.124c2.121,0.795,4.094,2.592,5.096,4.654c0.647,1.354,0.795,2.033,0.795,3.74
	c-0.029,2.651-0.826,4.389-2.945,6.303c-5.92,5.419-16.023,1.503-16.023-6.156c0-1.089,0.147-2.415,0.353-2.975
	c0.854-2.503,3.151-4.742,5.832-5.655C70.041,24.358,73.075,24.417,75.02,25.124z M68.068,51.338
	c2.385,0.854,4.742,2.916,5.654,5.066c1.563,3.593,1.149,7.246-2.063,18.615c-2.768,9.838-3.239,11.93-3.239,14.521
	c0,2.356,0.589,3.711,1.915,4.33c1.413,0.678,5.213,0.619,7.541-0.117c1.029-0.295,1.914-0.53,1.973-0.471
	c0.06,0.059-0.146,1.029-0.441,2.15l-0.529,2.002l-2.356,0.943c-6.656,2.68-10.634,3.416-14.875,2.768
	c-4.006-0.617-6.775-2.386-8.395-5.39c-0.677-1.267-0.883-2.003-0.971-4.005c-0.177-3.446,0.265-5.715,2.916-15.111
	c2.681-9.572,3.21-11.929,3.21-14.403c0-2.445-0.589-3.741-1.944-4.301c-1.532-0.647-5.125-0.559-7.452,0.147l-1.856,0.589
	l0.177-1.089c0.53-3.24,0.412-3.122,4.389-4.566c3.445-1.267,6.126-2.062,8.011-2.386C61.706,50.337,66.213,50.72,68.068,51.338
	L68.068,51.338z"/>
</svg>
