<?xml version="1.0" encoding="utf-8"?>
<!-- Generator: Adobe Illustrator 21.0.0, SVG Export Plug-In . SVG Version: 6.00 Build 0)  -->
<svg version="1.1" id="图层_1" xmlns="http://www.w3.org/2000/svg" xmlns:xlink="http://www.w3.org/1999/xlink" x="0px" y="0px"
	 viewBox="0 0 200 200" style="enable-background:new 0 0 200 200;" xml:space="preserve">
<path d="M183,60.2c-0.9-1.6-2.5-2.7-4.2-3.1c-0.6-0.6-1.4-1.1-2.3-1.5L25.6,0.7c-0.9-0.5-1.9-0.7-3-0.7c-3.5,0-6.4,2.9-6.4,6.4
	v187.1c0,3.6,2.9,6.4,6.4,6.4c3.5,0,6.4-2.9,6.4-6.4V15.7l133.8,48.7l-108,62.4v14.9L180.6,69C183.7,67.2,184.8,63.2,183,60.2z"/>
<path d="M56.6,129.6V48.2c0-3.4-2.8-6.2-6.2-6.2c-3.4,0-6.2,2.8-6.2,6.2v91.1c0,3,2.2,5.6,5.1,6.1c1.7,0.6,3.6,0.5,5.3-0.4l2-1.2
	L56.6,129.6L56.6,129.6z"/>
<path d="M58.4,57.2L100,71c3.2,1.1,6.7-0.7,7.8-3.9c1.1-3.2-0.7-6.7-3.9-7.8l-50.9-17c-2.9-1-6,0.3-7.4,2.9
	c-1.1,1.4-1.7,3.3-1.3,5.2l0.5,2.3L58.4,57.2L58.4,57.2z"/>
</svg>
