<?xml version="1.0" encoding="utf-8"?>
<!-- Generator: Adobe Illustrator 21.0.0, SVG Export Plug-In . SVG Version: 6.00 Build 0)  -->
<svg version="1.1" id="图层_1" xmlns="http://www.w3.org/2000/svg" xmlns:xlink="http://www.w3.org/1999/xlink" x="0px" y="0px"
	 viewBox="0 0 200 200" style="enable-background:new 0 0 200 200;" xml:space="preserve">
<path d="M199.8,121.7c0-16-21.8-28.5-48.4-28.5c-1.8,0-3.9,0.1-5.6,0.2V46.7c0.2-1.2,0.2-2.4,0.2-3.6c0-15.8-20.2-28.1-46.9-28.1
	c-26.7,0-47.6,12.4-47.6,28.1c0,1.2,0.2,2.4,0.4,3.6v12.8c-1.5-0.1-3-0.1-4.6-0.1c-26.7,0-47.2,12.3-47.2,28.1c0,1.2-0.2,2.4,0,3.6
	v65.4h0.3c0.8,14.9,21.1,26.5,46.8,26.5c25.7,0,47.3-11.5,48.1-26.5h0.3v-2.7c1.5,0.1,1.7,0.2,3.3,0.2c1.8,0,3.5-0.1,5.2-0.2v0.8
	h0.3l-0.1,1.8c0,15.4,20.9,28.8,47.6,28.8c26.7,0,47.6-12.2,47.6-27.9l-0.1-1.8h0.3v-30.1C200.2,124.2,199.8,123,199.8,121.7
	L199.8,121.7z M152.1,102.2c23.5,0,39.8,10.3,39.8,19.5c0,9.2-16.4,19.5-39.8,19.5c-23.5,0-39.8-10.3-39.8-19.5
	C112.3,112.5,128.6,102.2,152.1,102.2L152.1,102.2z M192.3,137.7v4.9c-2.2,9.9-20.1,18.1-40.2,18.1c-20.1,0-38-8.2-40.2-18.1v-4.9
	c8.6,7.6,23.2,12.6,40.2,12.6C169.1,150.2,183.7,145.3,192.3,137.7L192.3,137.7z M99,98c-1.5,0-1.8-0.1-3.3-0.2v-6.7
	c0.2-0.7,0.3-1.5,0.3-2.2c1.4,0.1,1.5,0.1,3,0.1c16.9,0,30.8-5,39-12.6v3.8C135.8,89.8,118.8,98,99,98L99,98z M138.6,94.2
	c-0.7,0.1-1.4,0.2-2.1,0.3c0.7-0.5,1.4-1.1,2.1-1.7V94.2L138.6,94.2z M99,23.9c23.1,0,38.6,10.1,38.6,19.2
	c0,9.1-15.5,19.2-38.6,19.2c-23.1,0-39.2-10.1-39.2-19.2C59.8,34,75.9,23.9,99,23.9L99,23.9z M59.3,58.8c0.7,0.6,1.5,1.2,2.3,1.8
	c-0.8-0.1-1.6-0.2-2.3-0.4V58.8L59.3,58.8z M47.3,68.3c23.1,0,39.9,10.1,39.9,19.2c0,9.1-16.8,19.2-39.9,19.2
	C24.1,106.6,8,96.5,8,87.4C8,78.4,24.1,68.3,47.3,68.3L47.3,68.3z M7.6,103.2c8.5,7.5,22.9,12.4,39.6,12.4
	c16.7,0,31.9-4.9,40.3-12.4v4.9c-2.2,9.7-20.4,17.8-40.3,17.8c-19.9,0-37.4-8.1-39.6-17.8L7.6,103.2L7.6,103.2z M7.6,120.7
	c8.2,7.6,22.7,12.6,39.6,12.6c16.9,0,32.1-5,40.3-12.6v3.8c-2.2,9.7-20.4,17.8-40.3,17.8c-19.9,0-37.4-8.1-39.6-17.8L7.6,120.7
	L7.6,120.7z M7.6,137.3c8.2,7.6,22.7,12.6,39.6,12.6c16.9,0,32.1-5,40.3-12.6v3.8c-2.2,9.7-20.4,17.8-40.3,17.8
	c-19.9,0-37.4-8.1-39.6-17.8L7.6,137.3L7.6,137.3z M47.3,175.4c-20.6,0-38.7-8.7-39.8-18.9h0.1v-2.7c8.2,7.6,22.7,12.6,39.6,12.6
	c16.9,0,32.1-5,40.3-12.6v2.7h0.1C86.6,166.6,67.9,175.4,47.3,175.4L47.3,175.4z M95,81.2c-1.6-4.3-6-8.1-10.4-11.4
	c4.5,0.8,9.4,1.3,14.4,1.3c16.7,0,30.5-4.9,39-12.4v4.9c-2.2,9.7-19.1,17.8-39,17.8C97.2,81.4,96.7,81.4,95,81.2L95,81.2z
	 M104.2,146.2c-1.7,0.1-3.5,0.2-5.2,0.2c-1.5,0-1.8-0.1-3.3-0.2v-7.9c1.5,0.1,1.7,0.2,3.3,0.2c1.8,0,3.5-0.1,5.2-0.2V146.2
	L104.2,146.2z M104.2,130.8c-1.7,0.1-3.5,0.2-5.2,0.2c-1.5,0-1.8-0.1-3.3-0.2v-9c1.5,0.1,1.7,0.2,3.3,0.2c1.7,0,3.3-0.1,4.9-0.2
	c0,1,0.2,2.1,0.4,3.1V130.8L104.2,130.8L104.2,130.8z M105.3,114.2c-2.1,0.2-4.2,0.3-6.4,0.3c-1.5,0-1.8-0.1-3.3-0.2v-9
	c1.5,0.1,1.7,0.2,3.3,0.2c5.1,0,9.9-0.5,14.5-1.3C109.7,107.1,106.9,110.5,105.3,114.2L105.3,114.2z M152.1,177.4
	c-21.4,0-40.3-9.3-40.5-20l0.1-2h0.1c8.3,7.8,23.1,12.9,40.3,12.9c17.2,0,31.9-5.1,40.3-12.9h0.1l0.1,1.8
	C192.5,168,173.6,177.4,152.1,177.4L152.1,177.4z M43.5,93.3c-0.3-0.4-0.6-1.2-0.8-2.5H37c0,2.7,1.1,4.6,3.5,5.7
	c1.4,0.6,3.4,1,6.2,1.3v2.9h2v-2.9c2.2-0.1,4-0.5,5.6-1.2c2.6-1.1,3.9-2.9,3.9-5.3c0-1.9-0.9-3.3-2.8-4.3c-1.1-0.6-3.4-1.3-6.7-2.1
	v-5.6c1.4,0.1,2.3,0.4,2.9,1.1c0.3,0.4,0.5,1,0.6,1.9h5.5c-0.1-2.3-1.3-4-3.6-5.1c-1.3-0.7-3.1-1-5.3-1.2v-2h-2V76
	c-1.4,0.1-2.5,0.2-3.2,0.4c-1.2,0.3-2.3,0.7-3.3,1.4c-0.8,0.5-1.4,1.2-1.8,1.9c-0.4,0.7-0.6,1.6-0.6,2.5c0,1.4,0.5,2.5,1.6,3.5
	c1.1,1,3,1.7,5.6,2.3l1.7,0.3v6.2C45.1,94.4,44,93.9,43.5,93.3L43.5,93.3z M48.7,88.8c1.2,0.3,2,0.6,2.5,0.9c0.8,0.5,1.2,1.1,1.2,2
	c0,1.1-0.4,1.9-1.3,2.3c-0.5,0.3-1.3,0.4-2.4,0.5L48.7,88.8L48.7,88.8z M44.4,83.7c-0.9-0.5-1.3-1.1-1.3-1.9c0-0.7,0.3-1.3,0.9-1.8
	c0.6-0.4,1.5-0.7,2.7-0.7v5.1C45.7,84.2,44.9,83.9,44.4,83.7L44.4,83.7z M147.7,126c-0.4-0.4-0.6-1.2-0.8-2.5h-5.7
	c0,2.7,1.1,4.6,3.5,5.7c1.4,0.6,3.4,1,6.2,1.3v2.9h2v-2.9c2.2-0.1,4-0.5,5.6-1.2c2.6-1.1,3.9-2.9,3.9-5.3c0-1.9-0.9-3.3-2.8-4.3
	c-1.1-0.6-3.4-1.3-6.7-2.1V112c1.4,0.1,2.3,0.4,2.9,1.1c0.3,0.4,0.5,1,0.6,1.9h5.5c-0.1-2.3-1.3-4-3.6-5.1c-1.3-0.7-3.1-1-5.3-1.2
	v-2h-2v1.9c-1.4,0.1-2.5,0.2-3.2,0.4c-1.2,0.3-2.3,0.7-3.3,1.4c-0.8,0.5-1.4,1.2-1.8,1.9c-0.4,0.7-0.6,1.6-0.6,2.5
	c0,1.4,0.5,2.5,1.6,3.5c1.1,1,3,1.7,5.6,2.3l1.7,0.4v6.2C149.3,127.1,148.2,126.7,147.7,126L147.7,126z M152.9,121.6
	c1.2,0.3,2,0.6,2.5,0.9c0.8,0.5,1.2,1.2,1.2,2c0,1.1-0.4,1.9-1.3,2.3c-0.5,0.3-1.3,0.4-2.4,0.5L152.9,121.6L152.9,121.6L152.9,121.6
	z M148.6,116.4c-0.9-0.5-1.3-1.1-1.3-1.9c0-0.7,0.3-1.3,0.9-1.8c0.6-0.4,1.5-0.7,2.7-0.7v5.1C149.9,116.9,149.1,116.7,148.6,116.4
	L148.6,116.4z M94.9,49.3c-0.3-0.4-0.6-1.2-0.8-2.5h-5.7c0,2.7,1.1,4.6,3.5,5.7c1.4,0.6,3.4,1,6.2,1.3v2.9h2v-2.9
	c2.2-0.1,4-0.5,5.6-1.2c2.6-1.1,3.9-2.9,3.9-5.3c0-1.9-0.9-3.3-2.8-4.3c-1.1-0.6-3.4-1.3-6.7-2.1v-5.6c1.4,0.1,2.3,0.4,2.9,1.1
	c0.3,0.4,0.5,1,0.6,1.9h5.5c-0.1-2.3-1.3-4-3.6-5.1c-1.3-0.7-3.1-1-5.3-1.2v-2h-2v1.9c-1.4,0.1-2.5,0.2-3.2,0.4
	c-1.2,0.3-2.3,0.7-3.3,1.4c-0.8,0.5-1.4,1.2-1.8,1.9c-0.4,0.7-0.6,1.6-0.6,2.5c0,1.4,0.5,2.5,1.6,3.5c1.1,1,3,1.7,5.6,2.3l1.7,0.4
	v6.2C96.5,50.4,95.4,50,94.9,49.3L94.9,49.3z M100.1,44.9c1.2,0.3,2,0.6,2.5,0.9c0.8,0.5,1.2,1.1,1.2,2c0,1.1-0.4,1.9-1.3,2.3
	c-0.5,0.3-1.3,0.4-2.4,0.5L100.1,44.9L100.1,44.9L100.1,44.9z M95.8,39.7c-0.9-0.5-1.3-1.1-1.3-1.9c0-0.7,0.3-1.3,0.9-1.8
	c0.6-0.4,1.5-0.7,2.7-0.7v5.1C97.1,40.2,96.3,40,95.8,39.7L95.8,39.7z"/>
</svg>
