<?xml version="1.0" encoding="utf-8"?>
<!-- Generator: Adobe Illustrator 21.0.0, SVG Export Plug-In . SVG Version: 6.00 Build 0)  -->
<svg version="1.1" id="图层_1" xmlns="http://www.w3.org/2000/svg" xmlns:xlink="http://www.w3.org/1999/xlink" x="0px" y="0px"
	 viewBox="0 0 200 200" style="enable-background:new 0 0 200 200;" xml:space="preserve">
<path d="M96.1,185.7c-3.4,0-6.6-1.3-9-3.7L3.7,98.6C1.3,96.2,0,93,0,89.6s1.3-6.6,3.7-9L66.3,18c2.4-2.4,5.6-3.7,9-3.7
	c3.4,0,6.6,1.3,9,3.7l21.4,21.4l20.5-20.5c2.4-2.4,5.6-3.7,9-3.7s6.6,1.3,9,3.7L196.3,71c2.4,2.4,3.7,5.6,3.7,9s-1.3,6.6-3.7,9
	l-23.5,23.5l-1.2-1.2l-1,3.1c-0.7,2.1-1.6,3.7-2.9,5L105.1,182C102.7,184.4,99.5,185.7,96.1,185.7L96.1,185.7z M75.3,28
	c-2.5,0-4.9,1-6.7,2.8L16.5,82.9c-1.8,1.8-2.8,4.1-2.8,6.7c0,2.5,1,4.9,2.8,6.7l73,73c1.8,1.8,4.1,2.8,6.7,2.8c2.5,0,4.9-1,6.7-2.8
	l3.9-3.9L66,124.6c-0.6-0.6-0.6-1.7,0-2.3l5.2-5.2c0.3-0.3,0.7-0.5,1.2-0.5c0.4,0,0.9,0.2,1.2,0.5l40.8,40.8l10.9-10.9l-37.1-37.1
	c-0.6-0.6-0.6-1.7,0-2.3l5.2-5.2c0.3-0.3,0.7-0.5,1.2-0.5c0.4,0,0.9,0.2,1.2,0.5l37.1,37.1l10.9-10.9l-33.4-33.4
	c-0.6-0.6-0.6-1.7,0-2.3l5.2-5.2c0.3-0.3,0.7-0.5,1.2-0.5c0.4,0,0.9,0.2,1.2,0.5l33.4,33.4l3.9-3.9c1.8-1.8,2.8-4.1,2.8-6.7
	c0-2.5-1-4.9-2.8-6.7l-73-73C80.2,29,77.8,28,75.3,28L75.3,28z M135.2,28.9c-2.5,0-4.9,1-6.7,2.8L113.2,47l55,55l15.3-15.3
	c1.8-1.8,2.8-4.1,2.8-6.7c0-2.6-1-4.9-2.8-6.7l-41.7-41.7C140,29.9,137.7,28.9,135.2,28.9z"/>
</svg>
