<?xml version="1.0" encoding="utf-8"?>
<!-- Generator: Adobe Illustrator 21.0.0, SVG Export Plug-In . SVG Version: 6.00 Build 0)  -->
<svg version="1.1" id="图层_1" xmlns="http://www.w3.org/2000/svg" xmlns:xlink="http://www.w3.org/1999/xlink" x="0px" y="0px"
	 viewBox="0 0 200 200" style="enable-background:new 0 0 200 200;" xml:space="preserve">
<style type="text/css">
	.st0{stroke:#000000;stroke-miterlimit:10;}
</style>
<g>
	<path class="st0" d="M174.6,33.5c-1.9,1.9-5.4,5.4-5.4,5.4c15.5,19.9,13.6,48.3-4.3,66l-17.3,17.3L77.3,51.9l18.4-17.3
		c9.7-9.7,22.7-15.1,35.7-15.1c10.8,0,21.6,3.2,30.3,10.8l5-4.8C149,9.6,125.6,0,100,0C44.8,0,0,44.8,0,100c0,25.3,9.4,48.5,25,66.1
		l6.9-7.2c-15.5-19.9-13.6-48.3,4.3-66l18.4-18.4l15.1,15.1l15.1-15.1l7.6,7.6L77.3,97.3l26,26l16.2-16.2l6.5,7.6l-16.2,16.2
		l14.1,14.1l-18.4,18.4c-9.7,9.7-22.7,15.1-35.7,15.1c-10.8,0-21.6-3.2-30.3-10.8l-6.5,6.5C50.6,190.2,74.2,200,100,200
		c55.2,0,100-44.8,100-100C200,74.5,190.4,51.1,174.6,33.5z"/>
	<path class="st0" d="M157.3,43.2l-1.1-1.1c-6.5-7.6-16.2-10.8-26-10.8c-9.7,0-19.5,4.3-27,11.9l-8.7,8.7l53,53l8.7-8.7
		C171.4,81.1,172.5,57.3,157.3,43.2z"/>
	<path class="st0" d="M44.8,155.7c6.5,7.6,16.2,10.8,26,10.8c9.7,0,19.5-4.3,27-11.9v0l9.7-9.7l-53-53l-9.7,9.7
		c-15.1,15.1-15.1,38.9-1.1,53L44.8,155.7z"/>
</g>
</svg>
