<svg xmlns="http://www.w3.org/2000/svg" width="200" height="200" viewBox="0 0 200 200">
  <defs>
    <style>
      .cls-1 {
        fill-rule: evenodd;
      }
    </style>
  </defs>
  <path id="形状_173" data-name="形状 173" class="cls-1" d="M140,200H60A60,60,0,0,1,0,140V60A60,60,0,0,1,60,0h80a60,60,0,0,1,60,60v80A60,60,0,0,1,140,200ZM160.784,55.827c-4.7-5.09-12.248-2.748-17.151,2.154L83.6,118.3,62.166,94.6a11.82,11.82,0,0,0-17.151,0c-4.892,4.89-3.478,10.912,1.413,15.813l28.251,28.464c4.9,4.9,14.951,3.685,19.847-1.217L159.073,73.18C164.453,67.789,165.845,61.322,160.784,55.827Z"/>
</svg>
