<?xml version="1.0" encoding="utf-8"?>
<!-- Generator: Adobe Illustrator 21.0.0, SVG Export Plug-In . SVG Version: 6.00 Build 0)  -->
<svg version="1.1" id="图层_1" xmlns="http://www.w3.org/2000/svg" xmlns:xlink="http://www.w3.org/1999/xlink" x="0px" y="0px"
	 viewBox="0 0 200 200" style="enable-background:new 0 0 200 200;" xml:space="preserve">
<path d="M100.6,200c-55,0-100-45-100-100s45-100,100-100C135,0,166.9,17.5,185,46.9c1.9,3.1,1.3,6.9-1.9,8.7
	c-3.1,1.9-6.9,1.3-8.7-1.9c-15.6-26.2-43.8-41.3-73.8-41.3c-48.1,0-87.5,39.4-87.5,87.5s39.4,87.5,87.5,87.5c25,0,48.8-10.6,65-29.4
	c2.5-2.5,6.3-2.5,8.8-0.6c2.5,2.5,2.5,6.3,0.6,8.7C156.3,188.1,128.8,200,100.6,200L100.6,200z"/>
<path d="M180.6,63.8c-1.3,0-1.9,0-3.1-0.6l-35-11.3c-3.1-1.3-5-4.4-3.8-8.1c1.3-3.1,4.4-5,8.1-3.7l31.9,10l8.8-31.9
	c1.3-3.1,4.4-5,7.5-4.4c3.1,1.3,5,4.4,4.4,7.5l-10.6,35.6c-0.6,2.5-2.5,4.4-4.4,5.6C183.8,63.8,181.9,63.8,180.6,63.8z M143.8,100
	H56.3c-3.8,0-6.3-2.5-6.3-6.3s2.5-6.3,6.3-6.3h87.5c3.8,0,6.3,2.5,6.3,6.3S147.5,100,143.8,100z"/>
<path d="M100,162.5c-3.8,0-6.3-2.5-6.3-6.3V93.8c0-3.8,2.5-6.3,6.3-6.3s6.3,2.5,6.3,6.3v62.5C106.3,160,103.8,162.5,100,162.5z"/>
<path d="M137.5,131.3h-75c-3.8,0-6.3-2.5-6.3-6.3s2.5-6.3,6.3-6.3h75c3.8,0,6.3,2.5,6.3,6.3S141.3,131.3,137.5,131.3z M93.8,93.8
	c-1.9,0-4.4-1.3-5.6-3.1L69.4,59.4c-1.3-3.1-0.6-6.9,2.5-8.7c3.1-1.9,6.9-0.6,8.8,1.9l18.8,31.2c1.9,3.1,0.6,6.9-1.9,8.8
	C96.3,93.8,95,93.8,93.8,93.8z"/>
<path d="M106.3,93.8c-1.3,0-2.5,0-3.1-0.6c-3.1-1.9-3.8-5.6-1.9-8.8L120,53.1c1.3-3.1,5-3.8,8.1-2.5c3.1,1.9,3.8,5.6,2.5,8.7
	l-18.8,31.3C110.6,92.5,108.1,93.8,106.3,93.8z"/>
</svg>
