<?xml version="1.0" standalone="no"?><!DOCTYPE svg PUBLIC "-//W3C//DTD SVG 1.1//EN" "http://www.w3.org/Graphics/SVG/1.1/DTD/svg11.dtd"><svg t="1518162522398" class="icon" style="" viewBox="0 0 1024 1024" version="1.1" xmlns="http://www.w3.org/2000/svg" p-id="4339" xmlns:xlink="http://www.w3.org/1999/xlink" width="200" height="200"><defs><style type="text/css"></style></defs><path d="M863.416594 859.972312c-17.670664 0-31.946963 14.276299-31.946963 31.946963 0 37.637516-30.549283 68.186799-68.186799 68.186799L132.929317 960.106074c-37.637516 0-68.186799-30.549283-68.186799-68.186799L64.742517 132.080725C64.742517 94.44321 95.291801 63.893926 132.929317 63.893926L512 63.893926l0 211.64863c0 59.601053 48.319782 107.821 107.821 107.821l211.848299 0c1.797017 15.973482 15.274642 28.35293 31.747295 28.35293s29.950278-12.379448 31.747295-28.35293l0.199669 0 0-3.594033 0-13.477625 0-6.189724c0-16.472653-4.193039-32.545969-12.079945-46.622599-5.790387-11.880277-13.577459-22.862045-23.161548-32.545969l-243.595593-245.093107c-8.885249-8.985083-19.268012-16.472653-30.349615-22.163206C571.401384 4.792044 554.329726 0 536.858731 0l-6.389393 0L512 0 132.929317 0C60.050307 0 0.848591 59.201716 0.848591 132.080725l0 759.838549c0 72.779175 59.201716 132.080725 132.080725 132.080725l630.353515 0c72.779175 0 132.080725-59.201716 132.080725-132.080725C895.363557 874.248611 881.087257 859.972312 863.416594 859.972312zM619.821 319.46963c-24.259725 0-43.927074-19.667349-43.927074-43.927074L575.893926 89.651165 804.314712 319.46963 619.821 319.46963z" p-id="4340"></path><path d="M416.159111 193.678463 160.583406 193.678463c-17.670664 0-31.946963 14.276299-31.946963 31.946963s14.276299 31.946963 31.946963 31.946963l255.575704 0c17.670664 0 31.946963-14.276299 31.946963-31.946963S433.829775 193.678463 416.159111 193.678463z" p-id="4341"></path><path d="M416.159111 385.360242 160.583406 385.360242c-17.670664 0-31.946963 14.276299-31.946963 31.946963s14.276299 31.946963 31.946963 31.946963l255.575704 0c17.670664 0 31.946963-14.276299 31.946963-31.946963S433.829775 385.360242 416.159111 385.360242z" p-id="4342"></path><path d="M416.159111 577.04202 160.583406 577.04202c-17.670664 0-31.946963 14.276299-31.946963 31.946963s14.276299 31.946963 31.946963 31.946963l255.575704 0c17.670664 0 31.946963-14.276299 31.946963-31.946963S433.829775 577.04202 416.159111 577.04202z" p-id="4343"></path><path d="M416.159111 768.723798 160.583406 768.723798c-17.670664 0-31.946963 14.276299-31.946963 31.946963s14.276299 31.946963 31.946963 31.946963l255.575704 0c17.670664 0 31.946963-14.276299 31.946963-31.946963S433.829775 768.723798 416.159111 768.723798z" p-id="4344"></path><path d="M973.234279 447.257483 561.91713 447.257483c-27.554256 0-49.91713 22.362874-49.91713 49.91713l0 283.529297c0 27.554256 22.362874 49.91713 49.91713 49.91713l411.317149 0c27.554256 0 49.91713-22.362874 49.91713-49.91713L1023.151409 497.174612C1023.151409 469.620357 1000.788535 447.257483 973.234279 447.257483zM909.540021 511.151409 768.074876 652.616555 626.60973 511.151409 909.540021 511.151409zM575.893926 766.727113 575.893926 550.78561l192.18095 192.18095L959.257483 551.783952 959.257483 766.727113 575.893926 766.727113z" p-id="4345"></path></svg>