<?xml version="1.0" encoding="utf-8"?>
<!-- Generator: Adobe Illustrator 21.0.0, SVG Export Plug-In . SVG Version: 6.00 Build 0)  -->
<svg version="1.1" id="图层_1" xmlns="http://www.w3.org/2000/svg" xmlns:xlink="http://www.w3.org/1999/xlink" x="0px" y="0px"
	 viewBox="0 0 200 200" style="enable-background:new 0 0 200 200;" xml:space="preserve">
<style type="text/css">
	.st0{display:none;}
</style>
<path class="st0" d="M167,130.2c-3.7,8.8-9,16.7-15.8,23.4c-6.8,6.8-14.7,12.1-23.4,15.8c-9.1,3.8-18.8,5.8-28.7,5.8
	s-19.6-2-28.7-5.8c-8.8-3.7-16.7-9-23.4-15.8c-6.8-6.8-12.1-14.7-15.8-23.4c-3.8-9.1-5.8-18.8-5.8-28.7s2-19.6,5.8-28.7
	c3.7-8.8,9-16.7,15.8-23.4c6.8-6.8,14.7-12.1,23.4-15.8c9.1-3.8,18.8-5.8,28.7-5.8c10,0,19.6,2,28.7,5.8c8.8,3.7,16.7,9,23.4,15.8
	C158,56.1,163.3,64,167,72.8c3.8,9.1,5.8,18.8,5.8,28.7S170.8,121.1,167,130.2z"/>
<path d="M100,0C44.8,0,0,44.8,0,100c0,54.8,44.1,99.4,98.8,100c0.4,0,0.8,0,1.1,0c0,0,0,0,0,0c0,0,0,0,0,0c55.2,0,100-44.8,100-100
	S155.2,0,100,0z M37.7,65.4h101l-6.9-6.9l9.8-9.8l18.7,18.7c2,2,2.6,5,1.5,7.5c-1.1,2.6-3.6,4.3-6.4,4.3l-117.7,0V65.4z
	 M162.3,134.6h-101l6.9,6.9l-9.8,9.8l-18.7-18.7c-2-2-2.6-5-1.5-7.5c1.1-2.6,3.6-4.3,6.4-4.3h117.7V134.6z"/>
</svg>
