<?xml version="1.0" encoding="utf-8"?>
<!-- Generator: Adobe Illustrator 21.0.0, SVG Export Plug-In . SVG Version: 6.00 Build 0)  -->
<svg version="1.1" id="图层_1" xmlns="http://www.w3.org/2000/svg" xmlns:xlink="http://www.w3.org/1999/xlink" x="0px" y="0px"
	 viewBox="0 0 200 200" style="enable-background:new 0 0 200 200;" xml:space="preserve">
<path d="M100,0C44.9,0,0,44.9,0,100s44.9,100,100,100c55.1,0,100-44.9,100-100S155.1,0,100,0z M140.1,98.8
	c-4.1,4.8-11.3,5.4-16.1,1.3c0,0,0,0,0,0l-12.6-10.7v45.9c0,6.3-5.1,11.4-11.4,11.4c-6.3,0-11.4-5.1-11.4-11.4V89.4L76,100.1
	c-4.9,4-12.1,3.3-16.1-1.6c-3.9-4.7-3.3-11.7,1.3-15.8L92.6,56c4.3-3.6,10.5-3.6,14.8,0l31.4,26.7C143.6,86.8,144.2,94,140.1,98.8
	L140.1,98.8z"/>
</svg>
