<?xml version="1.0" encoding="utf-8"?>
<!-- Generator: Adobe Illustrator 21.0.0, SVG Export Plug-In . SVG Version: 6.00 Build 0)  -->
<svg version="1.1" id="图层_1" xmlns="http://www.w3.org/2000/svg" xmlns:xlink="http://www.w3.org/1999/xlink" x="0px" y="0px"
	 viewBox="0 0 200 200" style="enable-background:new 0 0 200 200;" xml:space="preserve">
<path d="M165.8,33h0.8c1.1,0,2.2-0.2,2.9,0.7c0.8,0.8,1.2,1.3,1.2,2.5v6.6c0,2.4,1.9,4.4,4.2,4.4c2.3,0,4.2-2,4.2-4.4v-6.6
	c0-3.5-1.3-6.2-3.7-8.7c-2.4-2.5-5.5-3.3-8.8-3.3h-0.8c-2.3,0-4.2,2-4.2,4.4S163.5,33,165.8,33z"/>
<path d="M147.9,46.8c3.7,0,6-4,4.2-7.2L135.8,11c-1.4-3.3-4.1-5.9-7.3-7.1c-3.1-1.2-6.6-1-9.6,0.6c-0.2,0.1-0.4,0.2-0.5,0.3
	l-48.6,33c-3.9,2.6-2,8.7,2.7,8.8L147.9,46.8z"/>
<path d="M196.3,62.8c-2.4-2.5-5.5-3.3-8.8-3.3H20.8c-3.3,0-6.5-1.9-8.8-4.4c-2.4-2.5-3.7-6.3-3.7-9.9c0-3.5,1.3-6.6,3.7-9.1
	c2.4-2.5,5.5-3.3,8.8-3.3h33.3c2.3,0,4.2-2,4.2-4.4c0-2.4-1.9-4.4-4.2-4.4H20.8c-5.6,0-10.8,1.8-14.7,6C2.2,34.4,0,39.5,0,45.4
	c0,0.3,0.1,0.6,0.1,0.9H0v127c0,5.9,2.2,12.1,6.1,16.3c3.9,4.2,9.2,7.1,14.7,7.1h166.7c3.3,0,6.5-2,8.8-4.5c2.4-2.5,3.7-6.5,3.7-10
	V71.6C200,68,198.7,65.3,196.3,62.8z M170.2,165.7H108c-4.3,0-7.8-4.9-7.8-10.8c0-6,3.5-10.8,7.8-10.8h62.3c4.3,0,7.8,4.8,7.8,10.8
	C178,160.8,174.5,165.7,170.2,165.7z"/>
</svg>
